<svg id="svg" version="1.1" xmlns="http://www.w3.org/2000/svg" xmlns:xlink="http://www.w3.org/1999/xlink" width="400" height="401.3157894736842" viewBox="0, 0, 400,401.3157894736842"><g id="svgg"><path id="path0" d="M103.576 106.087 C 102.688 106.416,102.319 160.455,103.201 161.001 C 103.422 161.137,105.196 161.414,107.143 161.615 C 110.712 161.984,117.210 163.955,118.431 165.040 C 118.779 165.348,119.255 165.600,119.489 165.600 C 120.296 165.600,126.057 170.007,128.772 172.702 C 132.874 176.773,135.632 180.570,138.866 186.600 C 139.675 188.110,141.850 193.471,142.193 194.800 C 142.334 195.350,142.613 196.160,142.813 196.600 C 144.347 199.986,145.475 214.934,144.598 220.258 C 142.671 231.958,137.938 240.596,130.082 246.750 C 127.890 248.467,127.877 248.447,127.556 242.880 C 126.786 229.534,123.659 218.555,117.779 208.553 C 117.048 207.309,117.049 207.297,118.323 204.449 C 121.996 196.235,115.953 188.787,107.509 191.119 C 106.009 191.533,104.848 190.497,103.875 187.875 C 103.150 185.923,102.880 188.441,102.837 197.531 C 102.785 208.688,102.637 208.110,105.886 209.404 C 107.547 210.066,109.943 210.062,113.051 209.393 C 114.856 209.004,116.949 212.206,120.113 220.200 C 124.450 231.156,125.654 248.547,122.837 259.532 C 122.629 260.339,122.258 261.769,122.011 262.708 C 121.765 263.648,121.672 264.593,121.805 264.808 C 122.188 265.427,336.501 265.339,337.120 264.720 C 337.837 264.003,337.817 106.458,337.100 106.184 C 336.281 105.871,104.420 105.775,103.576 106.087 M225.157 126.007 C 235.535 129.174,234.736 140.355,223.763 145.525 C 222.684 146.034,221.500 146.611,221.134 146.808 C 217.193 148.920,209.296 147.888,207.554 145.032 C 205.987 142.461,206.692 141.223,209.041 142.421 C 211.052 143.447,215.086 144.187,216.834 143.851 C 219.334 143.370,219.372 143.163,217.476 140.335 C 211.754 131.802,216.308 123.306,225.157 126.007 M219.454 129.855 C 217.135 132.005,218.762 138.513,222.084 140.378 C 224.861 141.937,230.168 134.998,228.850 131.532 C 227.863 128.937,221.642 127.827,219.454 129.855 M201.502 181.962 C 201.575 208.463,201.731 219.075,202.051 219.462 C 202.398 219.880,204.265 220.000,210.400 220.000 C 219.330 220.000,219.729 219.881,218.360 217.630 C 204.547 194.916,230.928 164.970,258.745 171.786 L 261.600 172.486 261.600 195.763 C 261.600 213.334,261.718 219.158,262.080 219.520 C 262.814 220.254,283.337 220.199,283.949 219.462 C 284.269 219.076,284.425 208.567,284.498 182.362 L 284.600 145.800 289.643 145.242 C 292.417 144.936,295.165 144.805,295.749 144.952 L 296.812 145.218 296.706 183.407 L 296.600 221.596 291.498 226.698 L 286.396 231.800 226.911 231.878 C 169.992 231.953,167.413 231.988,167.141 232.678 C 166.984 233.075,166.841 234.570,166.822 236.000 C 166.636 250.233,156.317 260.471,140.794 261.825 L 137.733 262.092 133.467 257.051 C 128.122 250.736,128.104 250.582,132.700 250.216 C 136.381 249.924,141.639 248.778,144.000 247.755 C 146.138 246.829,148.541 245.503,149.120 244.931 C 149.405 244.649,149.953 244.189,150.336 243.909 C 154.832 240.627,154.791 240.985,154.796 205.074 C 154.800 170.866,154.682 172.401,157.314 172.399 C 158.241 172.398,160.609 172.200,162.576 171.959 C 167.730 171.327,167.269 168.909,167.155 196.024 C 167.102 208.687,167.191 219.262,167.353 219.524 C 167.811 220.265,188.539 220.197,189.157 219.452 C 189.490 219.051,189.607 209.161,189.594 182.584 C 189.584 162.608,189.716 146.127,189.888 145.960 C 190.309 145.548,196.468 144.877,199.200 144.945 L 201.400 145.000 201.502 181.962 M318.496 187.838 C 318.553 211.509,318.507 231.026,318.394 231.209 C 318.140 231.620,307.497 231.831,306.860 231.437 C 306.162 231.006,306.202 146.046,306.900 145.794 C 307.682 145.512,313.555 144.910,316.096 144.852 L 318.393 144.800 318.496 187.838 M165.330 150.121 C 169.119 153.226,168.900 158.814,164.869 161.882 C 159.297 166.124,151.600 160.800,153.380 153.937 C 154.756 148.632,161.057 146.620,165.330 150.121 M236.548 149.879 C 240.574 152.714,240.988 157.718,237.486 161.219 C 232.489 166.217,224.300 162.436,224.883 155.400 C 225.374 149.481,231.719 146.478,236.548 149.879 M250.457 148.809 C 257.406 150.739,257.265 161.352,250.266 163.236 C 244.297 164.843,238.721 158.738,241.190 153.298 C 242.969 149.378,246.445 147.695,250.457 148.809 M243.600 182.984 C 232.585 186.228,227.437 192.669,227.442 203.200 C 227.447 214.049,234.718 220.800,246.398 220.800 C 250.282 220.800,250.023 222.257,249.904 201.067 L 249.800 182.600 247.600 182.527 C 246.390 182.487,244.590 182.693,243.600 182.984 M103.001 260.854 C 102.863 261.214,102.806 262.294,102.875 263.254 L 103.000 265.000 104.900 265.122 C 107.377 265.281,107.405 264.594,105.026 262.077 C 103.602 260.570,103.203 260.329,103.001 260.854 " stroke="none" fill="#e31212" fill-rule="evenodd"></path><path id="path1" d="M0.000 200.600 L 0.000 401.200 200.000 401.200 L 400.000 401.200 400.000 200.600 L 400.000 0.000 200.000 0.000 L 0.000 0.000 0.000 200.600 M336.928 106.100 C 337.667 106.643,338.020 264.140,337.284 264.876 C 337.106 265.054,288.483 265.244,229.231 265.299 L 121.501 265.400 120.604 268.064 C 120.110 269.528,119.336 271.508,118.884 272.464 C 118.431 273.419,117.786 274.875,117.451 275.700 C 116.692 277.566,116.448 277.566,115.200 275.697 C 114.312 274.367,110.900 270.117,107.955 266.672 C 107.136 265.714,106.485 265.400,104.955 265.224 L 103.000 265.000 102.800 262.598 C 102.607 260.286,100.997 257.484,98.272 254.723 C 97.989 254.435,96.616 252.760,95.222 251.000 C 93.828 249.240,91.857 246.816,90.843 245.614 C 88.757 243.140,89.040 243.488,84.988 238.400 C 81.753 234.338,78.334 228.785,76.861 225.200 C 76.364 223.990,75.800 222.640,75.607 222.200 C 65.477 199.027,74.818 170.006,94.598 163.201 C 97.565 162.180,97.382 161.797,97.426 169.128 C 97.452 173.620,97.659 176.195,98.155 178.200 C 100.085 186.012,101.606 190.400,102.386 190.400 C 103.024 190.400,102.879 186.262,102.167 184.164 C 99.083 175.080,98.776 162.644,101.612 161.656 L 102.800 161.242 102.800 133.841 C 102.800 108.167,102.844 106.414,103.500 106.032 C 104.618 105.381,336.041 105.448,336.928 106.100 M194.200 145.255 C 192.220 145.455,190.375 145.700,190.100 145.797 C 189.705 145.938,189.600 153.643,189.600 182.507 C 189.600 210.388,189.486 219.154,189.120 219.520 C 188.436 220.204,167.964 220.204,167.280 219.520 C 166.918 219.158,166.800 213.286,166.800 195.547 C 166.800 168.779,167.209 171.313,163.000 172.002 C 161.680 172.219,159.610 172.399,158.400 172.404 C 157.190 172.408,155.975 172.555,155.700 172.730 C 155.307 172.979,155.175 179.923,155.088 204.824 C 154.985 234.257,154.924 236.732,154.262 238.383 C 152.845 241.917,150.141 244.736,146.400 246.581 C 145.190 247.178,143.922 247.810,143.582 247.985 C 142.087 248.757,136.278 249.980,132.893 250.236 C 129.359 250.503,129.200 250.555,129.200 251.457 C 129.200 251.976,129.335 252.404,129.500 252.409 C 129.665 252.414,131.060 253.987,132.600 255.904 C 134.140 257.822,135.985 259.996,136.701 260.736 L 138.001 262.081 140.901 261.794 C 156.456 260.255,166.589 250.091,166.818 235.800 C 166.839 234.480,166.986 233.071,167.144 232.669 C 167.421 231.966,169.640 231.940,226.315 231.984 C 270.672 232.018,285.413 231.914,286.074 231.560 C 286.556 231.302,289.122 228.968,291.775 226.374 L 296.600 221.657 296.693 183.895 C 296.767 153.385,296.685 145.996,296.264 145.420 C 295.764 144.736,287.824 145.039,285.100 145.846 C 284.440 146.042,284.400 148.137,284.400 182.547 C 284.400 210.397,284.286 219.154,283.920 219.520 C 283.508 219.932,262.275 220.298,261.908 219.900 C 261.857 219.845,261.722 209.181,261.608 196.202 L 261.400 172.604 259.000 171.934 C 255.455 170.944,246.048 170.971,241.800 171.982 C 220.958 176.944,209.367 198.028,217.639 215.933 C 218.492 217.780,219.092 219.451,218.972 219.646 C 218.701 220.084,202.790 220.108,202.102 219.672 C 201.712 219.424,201.582 211.310,201.502 182.178 L 201.400 145.000 199.600 144.945 C 198.610 144.915,196.180 145.054,194.200 145.255 M311.226 145.258 C 309.151 145.459,307.215 145.822,306.924 146.063 C 306.492 146.422,306.415 154.182,306.498 188.950 L 306.600 231.400 312.502 231.511 L 318.404 231.621 318.302 188.311 L 318.200 145.000 316.600 144.945 C 315.720 144.915,313.302 145.056,311.226 145.258 M158.097 148.740 C 155.342 149.534,153.200 152.649,153.200 155.862 C 153.200 165.191,166.858 165.851,167.904 156.573 C 168.497 151.312,163.374 147.220,158.097 148.740 M229.775 148.809 C 226.694 149.752,224.474 153.612,224.962 157.176 C 225.941 164.316,235.690 165.772,238.880 159.255 C 241.759 153.371,236.095 146.873,229.775 148.809 M246.132 148.764 C 243.730 149.374,241.589 151.828,240.620 155.082 C 239.841 157.698,243.693 163.131,246.426 163.270 C 249.241 163.414,251.034 163.118,252.200 162.317 C 259.254 157.476,254.412 146.660,246.132 148.764 M249.757 182.633 C 250.254 183.928,250.028 219.812,249.520 220.320 C 248.365 221.475,240.471 220.603,236.800 218.915 C 226.054 213.974,223.744 198.344,232.423 189.293 C 235.859 185.709,239.688 183.688,245.060 182.620 C 248.747 181.887,249.472 181.889,249.757 182.633 M101.138 197.100 C 100.046 199.586,99.999 202.894,101.025 204.955 C 102.336 207.586,102.593 206.967,102.711 200.900 C 102.833 194.648,102.532 193.923,101.138 197.100 " stroke="none" fill="#fbfbfb" fill-rule="evenodd"></path><path id="path2" d="M101.705 161.549 C 99.381 162.610,98.985 173.235,101.009 180.200 C 101.585 182.180,102.274 184.664,102.540 185.721 C 102.807 186.777,103.150 187.517,103.303 187.364 C 103.456 187.211,103.708 187.426,103.863 187.843 C 104.849 190.498,106.003 191.535,107.509 191.119 C 115.953 188.787,121.996 196.235,118.323 204.449 C 117.049 207.297,117.048 207.309,117.779 208.553 C 123.659 218.555,126.786 229.534,127.556 242.880 C 127.877 248.447,127.890 248.467,130.082 246.750 C 137.938 240.596,142.671 231.958,144.598 220.258 C 145.475 214.934,144.347 199.986,142.813 196.600 C 142.613 196.160,142.334 195.350,142.193 194.800 C 141.850 193.471,139.675 188.110,138.866 186.600 C 135.632 180.570,132.874 176.773,128.772 172.702 C 126.057 170.007,120.296 165.600,119.489 165.600 C 119.255 165.600,118.779 165.348,118.431 165.040 C 117.210 163.955,110.712 161.984,107.143 161.615 C 105.196 161.414,103.467 161.183,103.301 161.103 C 103.136 161.023,102.417 161.224,101.705 161.549 M94.200 163.339 C 74.546 170.683,65.544 199.180,75.607 222.200 C 75.800 222.640,76.364 223.990,76.861 225.200 C 78.334 228.785,81.753 234.338,84.988 238.400 C 89.040 243.488,88.757 243.140,90.843 245.614 C 91.857 246.816,93.824 249.240,95.213 251.000 C 96.603 252.760,97.861 254.290,98.008 254.400 C 98.155 254.510,99.318 255.950,100.591 257.600 C 101.864 259.250,103.044 260.561,103.214 260.513 C 103.767 260.357,106.855 264.020,106.726 264.680 C 106.657 265.033,107.140 265.891,107.800 266.586 C 109.544 268.424,114.037 273.956,115.200 275.697 C 116.448 277.566,116.691 277.566,117.453 275.700 C 117.790 274.875,118.484 273.300,118.995 272.200 C 119.505 271.100,120.238 269.210,120.623 268.000 C 121.007 266.790,121.473 265.603,121.658 265.363 C 121.842 265.123,121.892 264.825,121.769 264.702 C 121.645 264.579,121.737 263.740,121.972 262.839 C 122.208 261.938,122.583 260.494,122.807 259.632 C 125.659 248.629,124.469 231.203,120.113 220.200 C 116.947 212.201,114.856 209.002,113.051 209.397 C 108.320 210.431,104.054 209.535,102.952 207.275 C 102.704 206.766,102.343 206.386,102.151 206.430 C 99.752 206.982,99.946 196.567,102.359 195.214 C 103.305 194.684,103.132 191.132,102.111 190.111 C 101.304 189.304,99.425 183.645,98.157 178.200 C 97.636 175.965,97.398 173.312,97.367 169.400 C 97.313 162.754,97.289 162.394,96.900 162.421 C 96.735 162.432,95.520 162.845,94.200 163.339 " stroke="none" fill="#48a3e9" fill-rule="evenodd"></path><path id="path3" d="M162.900 105.900 C 194.525 105.956,246.275 105.956,277.900 105.900 C 309.525 105.843,283.650 105.797,220.400 105.797 C 157.150 105.797,131.275 105.843,162.900 105.900 M219.406 125.840 C 214.477 127.644,213.564 134.502,217.476 140.335 C 219.372 143.163,219.334 143.370,216.834 143.851 C 215.086 144.187,211.052 143.447,209.041 142.421 C 206.692 141.223,205.987 142.461,207.554 145.032 C 209.296 147.888,217.193 148.920,221.134 146.808 C 221.500 146.611,222.684 146.034,223.763 145.525 C 228.198 143.436,232.807 137.509,232.793 133.913 C 232.773 128.623,224.852 123.846,219.406 125.840 M226.702 129.650 C 230.496 131.486,229.619 136.332,224.876 139.739 C 222.781 141.244,221.765 140.893,219.816 137.991 C 215.718 131.890,220.176 126.490,226.702 129.650 M249.905 171.083 C 250.402 171.179,251.122 171.175,251.505 171.075 C 251.887 170.975,251.480 170.896,250.600 170.901 C 249.720 170.905,249.407 170.987,249.905 171.083 M166.986 193.800 C 166.986 205.460,167.037 210.172,167.100 204.272 C 167.162 198.371,167.162 188.831,167.100 183.072 C 167.037 177.312,166.986 182.140,166.986 193.800 M154.990 205.000 C 154.990 221.500,155.039 228.308,155.100 220.130 C 155.160 211.951,155.160 198.451,155.100 190.130 C 155.039 181.808,154.990 188.500,154.990 205.000 M296.565 192.200 C 296.566 196.160,296.626 197.726,296.698 195.680 C 296.771 193.634,296.771 190.394,296.698 188.480 C 296.624 186.566,296.565 188.240,296.565 192.200 " stroke="none" fill="#fae104" fill-rule="evenodd"></path></g></svg>